<svg width="683" height="82" viewBox="0 0 683 82" fill="none" xmlns="http://www.w3.org/2000/svg">
<path d="M679.92 60.512L683 64.384V65H672.616V64.384L675.696 60.512V6.216L672.616 2.08V1.46399L679.92 0.231995V60.512Z" fill="#FFFFFF"/>
<path d="M642.245 65.88C638.08 65.88 634.677 64.7947 632.037 62.624C629.456 60.4533 628.166 57.4907 628.166 53.736C628.166 49.9227 629.515 46.9013 632.214 44.672C634.912 42.4427 638.696 40.8293 643.566 39.832L658.614 36.928V34.024C658.614 29.8587 657.499 26.7493 655.27 24.696C653.099 22.584 650.283 21.528 646.822 21.528C643.243 21.528 640.221 22.584 637.757 24.696C635.352 26.808 634.061 29.7707 633.885 33.584L629.398 32.088C629.867 28.0987 631.656 24.8427 634.766 22.32C637.875 19.7387 641.923 18.448 646.91 18.448C651.779 18.448 655.651 19.768 658.526 22.408C661.4 25.048 662.838 28.7733 662.838 33.584V60.6L665.917 64.384V65H658.614V54.704C657.147 58.1653 655.005 60.8933 652.189 62.888C649.432 64.8827 646.117 65.88 642.245 65.88ZM658.614 48.632V40.008L644.621 42.824C640.867 43.5867 637.963 44.848 635.91 46.608C633.915 48.3093 632.917 50.6267 632.917 53.56C632.917 56.2587 633.827 58.4 635.646 59.984C637.464 61.568 639.928 62.36 643.037 62.36C647.261 62.36 650.693 61.04 653.333 58.4C655.973 55.7013 657.734 52.4453 658.614 48.632Z" fill="#FFFFFF"/>
<path d="M617.377 65.88C614.385 65.88 611.951 65 610.073 63.24C608.255 61.4213 607.345 58.6933 607.345 55.056V22.32H598.369V19.944C600.951 19.768 602.975 19.4453 604.441 18.976C605.967 18.448 607.052 17.4213 607.697 15.896C608.401 14.312 608.812 11.936 608.929 8.76801H611.569V19.328L624.329 18.888L624.505 22.32H611.569V55.32C611.569 57.96 612.185 59.8373 613.417 60.952C614.708 62.0667 616.233 62.624 617.993 62.624C618.991 62.624 619.959 62.536 620.897 62.36C621.836 62.1253 622.687 61.7147 623.449 61.128L623.713 63.592C623.127 64.12 622.305 64.6187 621.249 65.088C620.193 65.616 618.903 65.88 617.377 65.88Z" fill="#FFFFFF"/>
<path d="M591.496 60.512L594.576 64.384V65H584.192V64.384L587.272 60.512V24.872L584.192 20.736V20.12L591.496 18.888V60.512ZM589.208 10.176C588.211 10.176 587.36 9.824 586.656 9.11999C585.952 8.416 585.6 7.536 585.6 6.48C585.6 5.424 585.952 4.54399 586.656 3.83999C587.36 3.136 588.211 2.784 589.208 2.784C590.264 2.784 591.144 3.136 591.848 3.83999C592.611 4.54399 592.992 5.424 592.992 6.48C592.992 7.536 592.611 8.416 591.848 9.11999C591.144 9.824 590.264 10.176 589.208 10.176Z" fill="#FFFFFF"/>
<path d="M533.653 81.456V80.84L536.733 76.968V24.872L533.653 20.736V20.12L540.957 18.888V29.272C542.423 25.6933 544.653 22.9947 547.645 21.176C550.637 19.3573 553.805 18.448 557.149 18.448C561.138 18.448 564.629 19.4747 567.621 21.528C570.671 23.5813 573.048 26.3973 574.749 29.976C576.45 33.5547 577.301 37.632 577.301 42.208C577.301 46.7253 576.362 50.7733 574.485 54.352C572.666 57.9307 570.143 60.7467 566.917 62.8C563.69 64.8533 560.053 65.88 556.005 65.88C553.071 65.88 550.255 65.2053 547.557 63.856C544.858 62.5067 542.658 60.4827 540.957 57.784V76.968L545.357 80.84V81.456H533.653ZM556.005 62.888C559.231 62.888 562.077 61.9787 564.541 60.16C567.005 58.3413 568.941 55.8773 570.349 52.768C571.757 49.6 572.461 46.08 572.461 42.208C572.461 38.3947 571.816 34.9627 570.525 31.912C569.234 28.8613 567.415 26.456 565.069 24.696C562.722 22.8773 559.965 21.968 556.797 21.968C554.098 21.968 551.575 22.6427 549.229 23.992C546.941 25.2827 545.063 27.1307 543.597 29.536C542.13 31.8827 541.25 34.6693 540.957 37.896V48.984C541.837 53.208 543.597 56.5813 546.237 59.104C548.877 61.6267 552.133 62.888 556.005 62.888Z" fill="#FFFFFF"/>
<path d="M503.37 65.88C499.205 65.88 495.802 64.7947 493.162 62.624C490.581 60.4533 489.291 57.4907 489.291 53.736C489.291 49.9227 490.64 46.9013 493.339 44.672C496.037 42.4427 499.821 40.8293 504.69 39.832L519.739 36.928V34.024C519.739 29.8587 518.624 26.7493 516.395 24.696C514.224 22.584 511.408 21.528 507.946 21.528C504.368 21.528 501.347 22.584 498.883 24.696C496.477 26.808 495.186 29.7707 495.01 33.584L490.523 32.088C490.992 28.0987 492.781 24.8427 495.891 22.32C499 19.7387 503.048 18.448 508.034 18.448C512.904 18.448 516.776 19.768 519.651 22.408C522.525 25.048 523.963 28.7733 523.963 33.584V60.6L527.042 64.384V65H519.739V54.704C518.272 58.1653 516.131 60.8933 513.315 62.888C510.557 64.8827 507.242 65.88 503.37 65.88ZM519.739 48.632V40.008L505.747 42.824C501.992 43.5867 499.088 44.848 497.034 46.608C495.04 48.3093 494.042 50.6267 494.042 53.56C494.042 56.2587 494.952 58.4 496.771 59.984C498.589 61.568 501.053 62.36 504.162 62.36C508.386 62.36 511.818 61.04 514.458 58.4C517.098 55.7013 518.859 52.4453 519.739 48.632Z" fill="#FFFFFF"/>
<path d="M459.511 65.88C455.58 65.88 451.767 65.2053 448.071 63.856C444.433 62.5067 441.177 60.4827 438.303 57.784C435.428 55.0267 433.14 51.624 431.439 47.576C429.796 43.4693 428.975 38.688 428.975 33.232C428.975 27.6587 429.855 22.848 431.615 18.8C433.375 14.6933 435.751 11.32 438.743 8.67999C441.735 5.98133 445.049 3.98666 448.687 2.696C452.383 1.34666 456.137 0.671997 459.951 0.671997C465.7 0.671997 470.657 1.96266 474.823 4.54399C479.047 7.06666 482.039 10.44 483.799 14.664L480.807 19.152L480.191 19.064C479.545 16.0133 478.225 13.3733 476.231 11.144C474.295 8.91466 471.919 7.184 469.103 5.952C466.287 4.66133 463.236 4.016 459.951 4.016C455.023 4.016 450.593 5.16 446.663 7.44799C442.791 9.67733 439.711 12.9627 437.423 17.304C435.193 21.6453 434.079 26.9547 434.079 33.232C434.079 37.9253 434.783 42.0613 436.191 45.64C437.599 49.2187 439.505 52.2107 441.911 54.616C444.375 56.9627 447.103 58.752 450.095 59.984C453.145 61.1573 456.255 61.744 459.423 61.744C465.172 61.744 469.924 60.3653 473.679 57.608C477.492 54.8507 480.191 50.5093 481.775 44.584L484.415 45.288C483.652 49.6293 482.097 53.3547 479.751 56.464C477.404 59.5147 474.5 61.8613 471.039 63.504C467.577 65.088 463.735 65.88 459.511 65.88Z" fill="#FFFFFF"/>
<path d="M362.474 65V64.384L365.554 60.512V24.872L362.474 20.736V20.12L369.778 18.888V29.184C371.186 25.84 373.268 23.2293 376.026 21.352C378.783 19.416 381.892 18.448 385.354 18.448C389.871 18.448 393.538 19.768 396.354 22.408C399.228 24.9893 400.666 28.8027 400.666 33.848V60.512L403.746 64.384V65H393.362V64.384L396.442 60.512V34.376C396.442 30.2107 395.356 27.1013 393.186 25.048C391.074 22.9947 388.346 21.968 385.002 21.968C381.423 21.968 378.226 23.2587 375.41 25.84C372.594 28.3627 370.716 31.8827 369.778 36.4V60.512L372.858 64.384V65H362.474Z" fill="#FFFFFF"/>
<path d="M314.091 65V64.384L317.171 60.512V24.872L314.091 20.736V20.12L321.395 18.888V29.184C322.803 25.84 324.885 23.2293 327.643 21.352C330.4 19.416 333.509 18.448 336.971 18.448C341.488 18.448 345.155 19.768 347.971 22.408C350.845 24.9893 352.283 28.8027 352.283 33.848V60.512L355.363 64.384V65H344.979V64.384L348.059 60.512V34.376C348.059 30.2107 346.973 27.1013 344.803 25.048C342.691 22.9947 339.963 21.968 336.619 21.968C333.04 21.968 329.843 23.2587 327.027 25.84C324.211 28.3627 322.333 31.8827 321.395 36.4V60.512L324.475 64.384V65H314.091Z" fill="#FFFFFF"/>
<path d="M283.456 65.88C279.291 65.88 275.888 64.7947 273.248 62.624C270.667 60.4533 269.376 57.4907 269.376 53.736C269.376 49.9227 270.726 46.9013 273.424 44.672C276.123 42.4427 279.907 40.8293 284.776 39.832L299.824 36.928V34.024C299.824 29.8587 298.71 26.7493 296.48 24.696C294.31 22.584 291.494 21.528 288.032 21.528C284.454 21.528 281.432 22.584 278.968 24.696C276.563 26.808 275.272 29.7707 275.096 33.584L270.608 32.088C271.078 28.0987 272.867 24.8427 275.976 22.32C279.086 19.7387 283.134 18.448 288.12 18.448C292.99 18.448 296.862 19.768 299.736 22.408C302.611 25.048 304.048 28.7733 304.048 33.584V60.6L307.128 64.384V65H299.824V54.704C298.358 58.1653 296.216 60.8933 293.4 62.888C290.643 64.8827 287.328 65.88 283.456 65.88ZM299.824 48.632V40.008L285.832 42.824C282.078 43.5867 279.174 44.848 277.12 46.608C275.126 48.3093 274.128 50.6267 274.128 53.56C274.128 56.2587 275.038 58.4 276.856 59.984C278.675 61.568 281.139 62.36 284.248 62.36C288.472 62.36 291.904 61.04 294.544 58.4C297.184 55.7013 298.944 52.4453 299.824 48.632Z" fill="#FFFFFF"/>
<path d="M196.103 65V64.384L200.063 60.248L200.327 6.304L196.367 2.168V1.552H205.519L226.463 50.656C227.636 53.3547 228.457 55.5547 228.927 57.256C229.455 58.8987 229.719 59.72 229.719 59.72C229.719 59.72 229.953 58.8987 230.423 57.256C230.951 55.5547 231.772 53.3253 232.887 50.568L252.951 1.552H262.807V2.168L258.847 6.304V60.248L262.807 64.384V65H250.135V64.384L254.095 60.248V17.48C254.095 14.488 254.124 12.112 254.183 10.352C254.3 8.592 254.359 7.712 254.359 7.712C254.359 7.712 254.065 8.53333 253.479 10.176C252.892 11.8187 252.012 14.0187 250.839 16.776L230.423 65H227.695L207.279 17.216C206.105 14.4587 205.196 12.288 204.551 10.704C203.964 9.06133 203.671 8.24 203.671 8.24C203.671 8.24 203.729 9.12 203.847 10.88C203.964 12.5813 204.023 14.928 204.023 17.92L204.199 60.248L208.159 64.384V65H196.103Z" fill="#FFFFFF"/>
<path d="M155.134 65.88C150.441 65.88 146.627 64.7947 143.694 62.624C140.819 60.4533 138.766 57.8133 137.534 54.704L140.878 50.128L141.494 50.216C142.139 53.7947 143.635 56.7867 145.982 59.192C148.329 61.5387 151.409 62.712 155.222 62.712C158.39 62.712 161.03 61.832 163.142 60.072C165.313 58.2533 166.398 55.9067 166.398 53.032C166.398 50.5093 165.635 48.5147 164.11 47.048C162.643 45.5227 160.531 44.3787 157.774 43.616L149.678 41.504C146.451 40.624 143.899 39.304 142.022 37.544C140.203 35.784 139.294 33.2907 139.294 30.064C139.294 27.776 139.91 25.7813 141.142 24.08C142.433 22.32 144.193 20.9413 146.422 19.944C148.651 18.9467 151.174 18.448 153.99 18.448C157.803 18.448 160.971 19.24 163.494 20.824C166.017 22.408 167.923 24.5787 169.214 27.336L166.31 31.56L165.694 31.472C164.99 28.4213 163.553 26.016 161.382 24.256C159.27 22.4373 156.777 21.528 153.902 21.528C151.027 21.528 148.593 22.32 146.598 23.904C144.662 25.488 143.694 27.4827 143.694 29.888C143.694 31.8827 144.339 33.4667 145.63 34.64C146.979 35.8133 148.798 36.7227 151.086 37.368L159.27 39.568C162.731 40.5067 165.518 41.9733 167.63 43.968C169.742 45.9627 170.798 48.8667 170.798 52.68C170.798 55.2613 170.123 57.5493 168.774 59.544C167.425 61.5387 165.577 63.0933 163.23 64.208C160.883 65.3227 158.185 65.88 155.134 65.88Z" fill="#FFFFFF"/>
<path d="M117.235 65.88C112.542 65.88 108.729 64.7947 105.795 62.624C102.921 60.4533 100.867 57.8133 99.6354 54.704L102.979 50.128L103.595 50.216C104.241 53.7947 105.737 56.7867 108.083 59.192C110.43 61.5387 113.51 62.712 117.323 62.712C120.491 62.712 123.131 61.832 125.243 60.072C127.414 58.2533 128.499 55.9067 128.499 53.032C128.499 50.5093 127.737 48.5147 126.211 47.048C124.745 45.5227 122.633 44.3787 119.875 43.616L111.779 41.504C108.553 40.624 106.001 39.304 104.123 37.544C102.305 35.784 101.395 33.2907 101.395 30.064C101.395 27.776 102.011 25.7813 103.243 24.08C104.534 22.32 106.294 20.9413 108.523 19.944C110.753 18.9467 113.275 18.448 116.091 18.448C119.905 18.448 123.073 19.24 125.595 20.824C128.118 22.408 130.025 24.5787 131.315 27.336L128.411 31.56L127.795 31.472C127.091 28.4213 125.654 26.016 123.483 24.256C121.371 22.4373 118.878 21.528 116.003 21.528C113.129 21.528 110.694 22.32 108.699 23.904C106.763 25.488 105.795 27.4827 105.795 29.888C105.795 31.8827 106.441 33.4667 107.731 34.64C109.081 35.8133 110.899 36.7227 113.187 37.368L121.371 39.568C124.833 40.5067 127.619 41.9733 129.731 43.968C131.843 45.9627 132.899 48.8667 132.899 52.68C132.899 55.2613 132.225 57.5493 130.875 59.544C129.526 61.5387 127.678 63.0933 125.331 64.208C122.985 65.3227 120.286 65.88 117.235 65.88Z" fill="#FFFFFF"/>
<path d="M72.9192 65.88C68.7539 65.88 65.0285 64.8533 61.7432 62.8C58.5165 60.7467 55.9645 57.9307 54.0872 54.352C52.2685 50.7733 51.3592 46.696 51.3592 42.12C51.3592 37.544 52.2685 33.4667 54.0872 29.888C55.9645 26.3093 58.5165 23.5227 61.7432 21.528C65.0285 19.4747 68.7539 18.448 72.9192 18.448C77.1432 18.448 80.8685 19.4747 84.0952 21.528C87.3805 23.5227 89.9325 26.3093 91.7512 29.888C93.6285 33.4667 94.5672 37.544 94.5672 42.12C94.5672 46.696 93.6285 50.7733 91.7512 54.352C89.9325 57.9307 87.3805 60.7467 84.0952 62.8C80.8685 64.8533 77.1432 65.88 72.9192 65.88ZM72.9192 62.712C76.1459 62.712 79.0205 61.832 81.5432 60.072C84.0658 58.312 86.0605 55.8773 87.5272 52.768C88.9939 49.6587 89.7272 46.1093 89.7272 42.12C89.7272 38.072 88.9939 34.5227 87.5272 31.472C86.0605 28.3627 84.0658 25.928 81.5432 24.168C79.0205 22.408 76.1459 21.528 72.9192 21.528C69.7512 21.528 66.9058 22.408 64.3832 24.168C61.8605 25.928 59.8659 28.3627 58.3992 31.472C56.9325 34.5227 56.1992 38.072 56.1992 42.12C56.1992 46.1093 56.9325 49.6587 58.3992 52.768C59.8659 55.8773 61.8605 58.312 64.3832 60.072C66.9058 61.832 69.7512 62.712 72.9192 62.712Z" fill="#FFFFFF"/>
<path d="M9.22299 60.248L13.183 64.384V65H0.510986V64.384L4.47101 60.248V6.304L0.510986 2.168V1.552H13.183V2.168L9.22299 6.304V36.576L37.999 6.128L37.471 2.168L37.647 1.552H50.319V2.168L43.543 6.304L23.655 26.72L46.711 60.248L52.431 64.384V65H39.231L39.143 64.384L40.991 60.336L20.487 29.976L9.22299 41.504V60.248Z" fill="#FFFFFF"/>
</svg>
